<mxfile host="app.diagrams.net" agent="Mozilla/5.0 (Windows NT 10.0; Win64; x64) AppleWebKit/537.36 (KHTML, like Gecko) Chrome/129.0.0.0 Safari/537.36" version="24.7.14">
  <diagram name="Side-1" id="3b-uUro7AzVerAPavo0d">
    <mxGraphModel dx="2518" dy="2493" grid="1" gridSize="10" guides="1" tooltips="1" connect="1" arrows="1" fold="1" page="1" pageScale="1" pageWidth="827" pageHeight="1169" math="0" shadow="0">
      <root>
        <mxCell id="0" />
        <mxCell id="1" parent="0" />
        <mxCell id="aMPBUEdfj5LYTeKVrcZE-1" value="&lt;font style=&quot;font-size: 16px;&quot;&gt;Controller&lt;/font&gt;" style="swimlane;whiteSpace=wrap;html=1;startSize=30;" vertex="1" parent="1">
          <mxGeometry x="80" y="40" width="600" height="360" as="geometry" />
        </mxCell>
        <mxCell id="aMPBUEdfj5LYTeKVrcZE-48" value="&lt;font style=&quot;font-size: 14px;&quot;&gt;NCO&lt;/font&gt;" style="rounded=1;whiteSpace=wrap;html=1;" vertex="1" parent="aMPBUEdfj5LYTeKVrcZE-1">
          <mxGeometry x="420" y="260" width="110" height="60" as="geometry" />
        </mxCell>
        <mxCell id="aMPBUEdfj5LYTeKVrcZE-79" style="edgeStyle=orthogonalEdgeStyle;rounded=0;orthogonalLoop=1;jettySize=auto;html=1;entryX=0.5;entryY=1;entryDx=0;entryDy=0;" edge="1" parent="aMPBUEdfj5LYTeKVrcZE-1" source="aMPBUEdfj5LYTeKVrcZE-76" target="aMPBUEdfj5LYTeKVrcZE-78">
          <mxGeometry relative="1" as="geometry" />
        </mxCell>
        <mxCell id="aMPBUEdfj5LYTeKVrcZE-76" value="&lt;font style=&quot;font-size: 14px;&quot;&gt;Sample&lt;br&gt;Memory&lt;/font&gt;" style="rounded=1;whiteSpace=wrap;html=1;" vertex="1" parent="aMPBUEdfj5LYTeKVrcZE-1">
          <mxGeometry x="70" y="260" width="110" height="60" as="geometry" />
        </mxCell>
        <mxCell id="aMPBUEdfj5LYTeKVrcZE-78" value="" style="rounded=1;whiteSpace=wrap;html=1;" vertex="1" parent="aMPBUEdfj5LYTeKVrcZE-1">
          <mxGeometry x="70" y="170" width="110" height="60" as="geometry" />
        </mxCell>
        <mxCell id="aMPBUEdfj5LYTeKVrcZE-85" style="edgeStyle=orthogonalEdgeStyle;rounded=0;orthogonalLoop=1;jettySize=auto;html=1;entryX=0;entryY=0.5;entryDx=0;entryDy=0;" edge="1" parent="aMPBUEdfj5LYTeKVrcZE-1" source="aMPBUEdfj5LYTeKVrcZE-80" target="aMPBUEdfj5LYTeKVrcZE-84">
          <mxGeometry relative="1" as="geometry" />
        </mxCell>
        <mxCell id="aMPBUEdfj5LYTeKVrcZE-80" value="&lt;font style=&quot;font-size: 14px;&quot;&gt;Re&amp;nbsp; &amp;nbsp; &amp;nbsp; Im&lt;/font&gt;" style="rounded=1;whiteSpace=wrap;html=1;" vertex="1" parent="aMPBUEdfj5LYTeKVrcZE-1">
          <mxGeometry x="70" y="50" width="110" height="60" as="geometry" />
        </mxCell>
        <mxCell id="aMPBUEdfj5LYTeKVrcZE-82" style="edgeStyle=orthogonalEdgeStyle;rounded=0;orthogonalLoop=1;jettySize=auto;html=1;entryX=0.495;entryY=1.039;entryDx=0;entryDy=0;entryPerimeter=0;" edge="1" parent="aMPBUEdfj5LYTeKVrcZE-1" source="aMPBUEdfj5LYTeKVrcZE-78" target="aMPBUEdfj5LYTeKVrcZE-80">
          <mxGeometry relative="1" as="geometry" />
        </mxCell>
        <mxCell id="aMPBUEdfj5LYTeKVrcZE-87" style="edgeStyle=orthogonalEdgeStyle;rounded=0;orthogonalLoop=1;jettySize=auto;html=1;entryX=0;entryY=0.5;entryDx=0;entryDy=0;" edge="1" parent="aMPBUEdfj5LYTeKVrcZE-1" source="aMPBUEdfj5LYTeKVrcZE-84" target="aMPBUEdfj5LYTeKVrcZE-86">
          <mxGeometry relative="1" as="geometry" />
        </mxCell>
        <mxCell id="aMPBUEdfj5LYTeKVrcZE-84" value="&lt;font style=&quot;font-size: 14px;&quot;&gt;Calculations&lt;/font&gt;" style="rounded=1;whiteSpace=wrap;html=1;" vertex="1" parent="aMPBUEdfj5LYTeKVrcZE-1">
          <mxGeometry x="240" y="50" width="110" height="60" as="geometry" />
        </mxCell>
        <mxCell id="aMPBUEdfj5LYTeKVrcZE-86" value="&lt;font style=&quot;font-size: 14px;&quot;&gt;Derived Quantities&lt;/font&gt;" style="rounded=1;whiteSpace=wrap;html=1;" vertex="1" parent="aMPBUEdfj5LYTeKVrcZE-1">
          <mxGeometry x="400" y="50" width="110" height="60" as="geometry" />
        </mxCell>
        <mxCell id="aMPBUEdfj5LYTeKVrcZE-13" value="" style="shape=image;verticalLabelPosition=bottom;labelBackgroundColor=default;verticalAlign=top;aspect=fixed;imageAspect=0;image=data:image/png,iVBORw0KGgoAAAANSUhEUgAAAHwAAABACAYAAADYphNoAAAAAXNSR0IArs4c6QAAAARnQU1BAACxjwv8YQUAAAAJcEhZcwAADsMAAA7DAcdvqGQAAAOcSURBVHhe7Z2xSitBFIYnF4LaRNTWQg2k0UIImNJACisVUqgQyCP4BIJa+A7WEoVgIUnaCPoIIpZK3kAUxM41Z+8ZEu+9cLO7M2f2zJ4Pwu7MbjG7Hzn/zmwguWCIEjLDL9wKGcGp8M/PT9wTqHAqvFKpqHq9ji2BAmfC4dFhMBioxcVF7BEocCb8+fk53M7Pz4dbgQZnwu/u7tTS0hK2BCpEeMZwIhzyW4S7wYlwyW93OBEO3+5qtYotgRIRnjHIhev8FuFuIBeu87tYLIZbgRZy4frbncvlsEegxJlwwQ2kwiW/3UMqXPLbPaTCJb/d40S44A4y4ZLf6YBMuOR3OiATLvmdDsiFC24hES75nR5IhEt+pwcS4T7k98fHB+7xhlQ4Vw4ODlS5XMYWb6wL9yG/l5eXw9/Qv7+/Yw9frAv3Ib+npqbCH1z2ej3s4Yt14T7kN7C6uqqur6+xxRcy4dwplUrhtXAv61aF+zT/hrK+ubnJvqxbFe7b/Htvb499Wbcq3Jf81mxvb7Mv6yTCfaFQKLAv69aE+7p+zr2sWxPu6/o597JuTbhv+a3hXtatC/cRzmXdinDf339zLutWhPv+/ptzWbci3Nf8HodrWbcq3Ge4lnXjwn3M79fXV9wbocv61dUV9vDAuHDf8vv29lZdXl6qZrOJPSPOzs7U0dFReA4XjAv3Kb9B5P7+vmq322plZQV7R6ytrYXH4Bwu0q0J58647Fqthr1/A8c4STcq3Jf8nlS2hpN0o8J9yO+osjVcpBsV3u12I+c3/BoUKkMaiCtbMy79/Pzc6pTt5eUF9yIyvNlG6Pf7wcLCQvD09IQ9/2c43QnW19fDz83NTfD19YVH6NHjh21SHh8fg93d3WB2djbY2dkJWq1W8Pb2hkeTc3h4GMzMzMQaqxHhSW4WSAbZLsWblD0OSAbZpuUfHx8Hw2lirDEnFm7qZrkSb0v2n5iUD8LhE2fsiYTbuFmU4m2MfxKSytfCgajXEFu47ZtlW7zt8U9KHPnjwoEo1xLrf8vgCXFjYyP202wUYHidTkednp6G7a2tLTU9PR3uxwXWxmG5lGL8UYCnenjlCm/hYD0D1uphNS+fz+MZv9FrHScnJ9gzmmE0Gg01NzeHvSP0ubH/qA6k/2u50RYwTLjQ+/t77EkGrI1Tjj8qIB8kPjw8YM9PxmVrwMnFxQW2fpJYuMAT42vpQroR4RlDhGcMEZ4xRHimUOobPCKuRTtlFeUAAAAASUVORK5CYII=;" vertex="1" parent="aMPBUEdfj5LYTeKVrcZE-1">
          <mxGeometry x="92.06" y="190" width="65.88" height="34" as="geometry" />
        </mxCell>
        <mxCell id="aMPBUEdfj5LYTeKVrcZE-93" value="&lt;font style=&quot;font-size: 14px;&quot;&gt;DFT&lt;/font&gt;" style="text;html=1;align=center;verticalAlign=middle;resizable=0;points=[];autosize=1;strokeColor=none;fillColor=none;" vertex="1" parent="aMPBUEdfj5LYTeKVrcZE-1">
          <mxGeometry x="100" y="170" width="50" height="30" as="geometry" />
        </mxCell>
        <mxCell id="aMPBUEdfj5LYTeKVrcZE-3" style="edgeStyle=orthogonalEdgeStyle;rounded=0;orthogonalLoop=1;jettySize=auto;html=1;entryX=0.5;entryY=0;entryDx=0;entryDy=0;endArrow=classic;endFill=1;startArrow=classic;startFill=1;strokeWidth=2;" edge="1" parent="1" source="aMPBUEdfj5LYTeKVrcZE-2" target="aMPBUEdfj5LYTeKVrcZE-1">
          <mxGeometry relative="1" as="geometry" />
        </mxCell>
        <mxCell id="aMPBUEdfj5LYTeKVrcZE-2" value="&lt;font style=&quot;font-size: 16px;&quot;&gt;UI&lt;/font&gt;" style="swimlane;whiteSpace=wrap;html=1;startSize=30;" vertex="1" parent="1">
          <mxGeometry x="80" y="-160" width="600" height="160" as="geometry" />
        </mxCell>
        <mxCell id="aMPBUEdfj5LYTeKVrcZE-90" value="&lt;font style=&quot;font-size: 14px;&quot;&gt;Display / Input&lt;/font&gt;" style="rounded=1;whiteSpace=wrap;html=1;" vertex="1" parent="aMPBUEdfj5LYTeKVrcZE-2">
          <mxGeometry x="80" y="60" width="120" height="60" as="geometry" />
        </mxCell>
        <mxCell id="aMPBUEdfj5LYTeKVrcZE-91" value="&lt;font style=&quot;font-size: 14px;&quot;&gt;Export&lt;/font&gt;" style="rounded=1;whiteSpace=wrap;html=1;" vertex="1" parent="aMPBUEdfj5LYTeKVrcZE-2">
          <mxGeometry x="400" y="60" width="120" height="60" as="geometry" />
        </mxCell>
        <mxCell id="aMPBUEdfj5LYTeKVrcZE-4" value="&lt;font style=&quot;font-size: 16px;&quot;&gt;Analog Front end&lt;/font&gt;" style="swimlane;whiteSpace=wrap;html=1;startSize=30;" vertex="1" parent="1">
          <mxGeometry x="80" y="440" width="600" height="440" as="geometry" />
        </mxCell>
        <mxCell id="aMPBUEdfj5LYTeKVrcZE-17" style="edgeStyle=orthogonalEdgeStyle;rounded=0;orthogonalLoop=1;jettySize=auto;html=1;exitX=0.5;exitY=1;exitDx=0;exitDy=0;entryX=0.5;entryY=0;entryDx=0;entryDy=0;startArrow=classic;startFill=1;endArrow=none;endFill=0;" edge="1" parent="aMPBUEdfj5LYTeKVrcZE-4" source="aMPBUEdfj5LYTeKVrcZE-8" target="aMPBUEdfj5LYTeKVrcZE-11">
          <mxGeometry relative="1" as="geometry" />
        </mxCell>
        <mxCell id="aMPBUEdfj5LYTeKVrcZE-8" value="&lt;font style=&quot;font-size: 14px;&quot;&gt;ADC&lt;/font&gt;" style="shape=offPageConnector;whiteSpace=wrap;html=1;" vertex="1" parent="aMPBUEdfj5LYTeKVrcZE-4">
          <mxGeometry x="100" y="80" width="50" height="80" as="geometry" />
        </mxCell>
        <mxCell id="aMPBUEdfj5LYTeKVrcZE-16" style="edgeStyle=orthogonalEdgeStyle;rounded=0;orthogonalLoop=1;jettySize=auto;html=1;exitX=0.187;exitY=0.76;exitDx=0;exitDy=0;exitPerimeter=0;entryX=-0.002;entryY=0.658;entryDx=0;entryDy=0;entryPerimeter=0;" edge="1" parent="aMPBUEdfj5LYTeKVrcZE-4" source="aMPBUEdfj5LYTeKVrcZE-9" target="aMPBUEdfj5LYTeKVrcZE-15">
          <mxGeometry relative="1" as="geometry">
            <Array as="points" />
          </mxGeometry>
        </mxCell>
        <mxCell id="aMPBUEdfj5LYTeKVrcZE-56" style="edgeStyle=orthogonalEdgeStyle;rounded=0;orthogonalLoop=1;jettySize=auto;html=1;entryX=-0.004;entryY=0.352;entryDx=0;entryDy=0;entryPerimeter=0;exitX=0.8;exitY=0.773;exitDx=0;exitDy=0;exitPerimeter=0;" edge="1" parent="aMPBUEdfj5LYTeKVrcZE-4" source="aMPBUEdfj5LYTeKVrcZE-9" target="aMPBUEdfj5LYTeKVrcZE-15">
          <mxGeometry relative="1" as="geometry">
            <Array as="points" />
          </mxGeometry>
        </mxCell>
        <mxCell id="aMPBUEdfj5LYTeKVrcZE-9" value="&lt;font style=&quot;font-size: 14px;&quot;&gt;DAC&lt;/font&gt;" style="shape=offPageConnector;whiteSpace=wrap;html=1;" vertex="1" parent="aMPBUEdfj5LYTeKVrcZE-4">
          <mxGeometry x="450" y="80" width="50" height="80" as="geometry" />
        </mxCell>
        <mxCell id="aMPBUEdfj5LYTeKVrcZE-11" value="&lt;font style=&quot;font-size: 14px;&quot;&gt;Range&lt;/font&gt;" style="rounded=1;whiteSpace=wrap;html=1;" vertex="1" parent="aMPBUEdfj5LYTeKVrcZE-4">
          <mxGeometry x="70" y="190" width="110" height="60" as="geometry" />
        </mxCell>
        <mxCell id="aMPBUEdfj5LYTeKVrcZE-15" value="" style="triangle;whiteSpace=wrap;html=1;rotation=90;" vertex="1" parent="aMPBUEdfj5LYTeKVrcZE-4">
          <mxGeometry x="437.5" y="177.5" width="75" height="100" as="geometry" />
        </mxCell>
        <mxCell id="aMPBUEdfj5LYTeKVrcZE-60" style="edgeStyle=orthogonalEdgeStyle;rounded=0;orthogonalLoop=1;jettySize=auto;html=1;exitX=0.25;exitY=1;exitDx=0;exitDy=0;entryX=0.364;entryY=0;entryDx=0;entryDy=0;entryPerimeter=0;" edge="1" parent="aMPBUEdfj5LYTeKVrcZE-4" source="aMPBUEdfj5LYTeKVrcZE-20" target="aMPBUEdfj5LYTeKVrcZE-69">
          <mxGeometry relative="1" as="geometry">
            <mxPoint x="460" y="280" as="targetPoint" />
          </mxGeometry>
        </mxCell>
        <mxCell id="aMPBUEdfj5LYTeKVrcZE-61" style="edgeStyle=orthogonalEdgeStyle;rounded=0;orthogonalLoop=1;jettySize=auto;html=1;exitX=0.75;exitY=1;exitDx=0;exitDy=0;entryX=0.636;entryY=0;entryDx=0;entryDy=0;entryPerimeter=0;" edge="1" parent="aMPBUEdfj5LYTeKVrcZE-4" source="aMPBUEdfj5LYTeKVrcZE-20" target="aMPBUEdfj5LYTeKVrcZE-69">
          <mxGeometry relative="1" as="geometry">
            <mxPoint x="490" y="280" as="targetPoint" />
          </mxGeometry>
        </mxCell>
        <mxCell id="aMPBUEdfj5LYTeKVrcZE-20" value="&lt;font style=&quot;font-size: 14px;&quot;&gt;Gain&lt;/font&gt;" style="text;html=1;align=center;verticalAlign=middle;whiteSpace=wrap;rounded=0;" vertex="1" parent="aMPBUEdfj5LYTeKVrcZE-4">
          <mxGeometry x="445" y="212.5" width="60" height="30" as="geometry" />
        </mxCell>
        <mxCell id="aMPBUEdfj5LYTeKVrcZE-58" value="+" style="text;html=1;align=center;verticalAlign=middle;resizable=0;points=[];autosize=1;strokeColor=none;fillColor=none;" vertex="1" parent="aMPBUEdfj5LYTeKVrcZE-4">
          <mxGeometry x="430" y="185" width="30" height="30" as="geometry" />
        </mxCell>
        <mxCell id="aMPBUEdfj5LYTeKVrcZE-59" value="-" style="text;html=1;align=center;verticalAlign=middle;resizable=0;points=[];autosize=1;strokeColor=none;fillColor=none;" vertex="1" parent="aMPBUEdfj5LYTeKVrcZE-4">
          <mxGeometry x="482.5" y="185" width="30" height="30" as="geometry" />
        </mxCell>
        <mxCell id="aMPBUEdfj5LYTeKVrcZE-68" style="edgeStyle=orthogonalEdgeStyle;rounded=0;orthogonalLoop=1;jettySize=auto;html=1;entryX=0.5;entryY=1;entryDx=0;entryDy=0;" edge="1" parent="aMPBUEdfj5LYTeKVrcZE-4" source="aMPBUEdfj5LYTeKVrcZE-63" target="aMPBUEdfj5LYTeKVrcZE-11">
          <mxGeometry relative="1" as="geometry" />
        </mxCell>
        <mxCell id="aMPBUEdfj5LYTeKVrcZE-63" value="" style="triangle;whiteSpace=wrap;html=1;rotation=90;direction=west;" vertex="1" parent="aMPBUEdfj5LYTeKVrcZE-4">
          <mxGeometry x="87.5" y="270" width="75" height="100" as="geometry" />
        </mxCell>
        <mxCell id="aMPBUEdfj5LYTeKVrcZE-66" value="+" style="text;html=1;align=center;verticalAlign=middle;resizable=0;points=[];autosize=1;strokeColor=none;fillColor=none;" vertex="1" parent="aMPBUEdfj5LYTeKVrcZE-4">
          <mxGeometry x="80" y="330" width="30" height="30" as="geometry" />
        </mxCell>
        <mxCell id="aMPBUEdfj5LYTeKVrcZE-67" value="-" style="text;html=1;align=center;verticalAlign=middle;resizable=0;points=[];autosize=1;strokeColor=none;fillColor=none;" vertex="1" parent="aMPBUEdfj5LYTeKVrcZE-4">
          <mxGeometry x="132.5" y="330" width="30" height="30" as="geometry" />
        </mxCell>
        <mxCell id="aMPBUEdfj5LYTeKVrcZE-69" value="&lt;font style=&quot;font-size: 14px;&quot;&gt;Bias&lt;/font&gt;" style="rounded=1;whiteSpace=wrap;html=1;" vertex="1" parent="aMPBUEdfj5LYTeKVrcZE-4">
          <mxGeometry x="420" y="290" width="110" height="60" as="geometry" />
        </mxCell>
        <mxCell id="aMPBUEdfj5LYTeKVrcZE-75" value="" style="endArrow=none;dashed=1;html=1;rounded=0;strokeWidth=2;" edge="1" parent="aMPBUEdfj5LYTeKVrcZE-4">
          <mxGeometry width="50" height="50" relative="1" as="geometry">
            <mxPoint x="299.41" y="440" as="sourcePoint" />
            <mxPoint x="299.41" y="29" as="targetPoint" />
          </mxGeometry>
        </mxCell>
        <mxCell id="aMPBUEdfj5LYTeKVrcZE-29" style="edgeStyle=orthogonalEdgeStyle;rounded=0;orthogonalLoop=1;jettySize=auto;html=1;exitX=0.868;exitY=1.018;exitDx=0;exitDy=0;entryX=1;entryY=0.5;entryDx=0;entryDy=0;exitPerimeter=0;strokeWidth=2;" edge="1" parent="1" source="aMPBUEdfj5LYTeKVrcZE-26" target="aMPBUEdfj5LYTeKVrcZE-27">
          <mxGeometry relative="1" as="geometry">
            <Array as="points">
              <mxPoint x="601" y="1110" />
            </Array>
          </mxGeometry>
        </mxCell>
        <mxCell id="aMPBUEdfj5LYTeKVrcZE-31" style="edgeStyle=orthogonalEdgeStyle;rounded=0;orthogonalLoop=1;jettySize=auto;html=1;exitX=0.75;exitY=1;exitDx=0;exitDy=0;strokeWidth=2;" edge="1" parent="1" source="aMPBUEdfj5LYTeKVrcZE-26">
          <mxGeometry relative="1" as="geometry">
            <mxPoint x="440" y="1110" as="targetPoint" />
            <Array as="points">
              <mxPoint x="440" y="1030" />
            </Array>
          </mxGeometry>
        </mxCell>
        <mxCell id="aMPBUEdfj5LYTeKVrcZE-32" style="edgeStyle=orthogonalEdgeStyle;rounded=0;orthogonalLoop=1;jettySize=auto;html=1;exitX=0.134;exitY=1;exitDx=0;exitDy=0;entryX=0;entryY=0.5;entryDx=0;entryDy=0;exitPerimeter=0;strokeWidth=2;startArrow=none;startFill=0;" edge="1" parent="1" source="aMPBUEdfj5LYTeKVrcZE-26" target="aMPBUEdfj5LYTeKVrcZE-27">
          <mxGeometry relative="1" as="geometry">
            <Array as="points">
              <mxPoint x="160" y="1110" />
            </Array>
          </mxGeometry>
        </mxCell>
        <mxCell id="aMPBUEdfj5LYTeKVrcZE-33" style="edgeStyle=orthogonalEdgeStyle;rounded=0;orthogonalLoop=1;jettySize=auto;html=1;exitX=0.25;exitY=1;exitDx=0;exitDy=0;strokeWidth=2;" edge="1" parent="1" source="aMPBUEdfj5LYTeKVrcZE-26">
          <mxGeometry relative="1" as="geometry">
            <mxPoint x="320" y="1110" as="targetPoint" />
            <Array as="points">
              <mxPoint x="320" y="1030" />
            </Array>
          </mxGeometry>
        </mxCell>
        <mxCell id="aMPBUEdfj5LYTeKVrcZE-26" value="&lt;font style=&quot;font-size: 16px;&quot;&gt;Kelvin Connection&lt;/font&gt;" style="rounded=1;whiteSpace=wrap;html=1;" vertex="1" parent="1">
          <mxGeometry x="80" y="990" width="600" height="40" as="geometry" />
        </mxCell>
        <mxCell id="aMPBUEdfj5LYTeKVrcZE-27" value="" style="rounded=0;whiteSpace=wrap;html=1;" vertex="1" parent="1">
          <mxGeometry x="355" y="1100" width="50" height="20" as="geometry" />
        </mxCell>
        <mxCell id="aMPBUEdfj5LYTeKVrcZE-34" value="&lt;font style=&quot;font-size: 14px;&quot;&gt;H&lt;sub&gt;Cur&lt;/sub&gt;&lt;/font&gt;" style="text;html=1;align=center;verticalAlign=middle;whiteSpace=wrap;rounded=0;" vertex="1" parent="1">
          <mxGeometry x="100" y="1040" width="60" height="30" as="geometry" />
        </mxCell>
        <mxCell id="aMPBUEdfj5LYTeKVrcZE-35" value="&lt;span style=&quot;color: rgb(0, 0, 0); font-family: Helvetica; font-size: 14px; font-style: normal; font-variant-ligatures: normal; font-variant-caps: normal; font-weight: 400; letter-spacing: normal; orphans: 2; text-align: center; text-indent: 0px; text-transform: none; widows: 2; word-spacing: 0px; -webkit-text-stroke-width: 0px; white-space: normal; background-color: rgb(251, 251, 251); text-decoration-thickness: initial; text-decoration-style: initial; text-decoration-color: initial; display: inline !important; float: none;&quot;&gt;H&lt;/span&gt;&lt;sub style=&quot;forced-color-adjust: none; color: rgb(0, 0, 0); font-family: Helvetica; font-style: normal; font-variant-ligatures: normal; font-variant-caps: normal; font-weight: 400; letter-spacing: normal; orphans: 2; text-align: center; text-indent: 0px; text-transform: none; widows: 2; word-spacing: 0px; -webkit-text-stroke-width: 0px; white-space: normal; background-color: rgb(251, 251, 251); text-decoration-thickness: initial; text-decoration-style: initial; text-decoration-color: initial;&quot;&gt;Pot&lt;/sub&gt;" style="text;whiteSpace=wrap;html=1;" vertex="1" parent="1">
          <mxGeometry x="270" y="1040" width="60" height="40" as="geometry" />
        </mxCell>
        <mxCell id="aMPBUEdfj5LYTeKVrcZE-36" value="&lt;span style=&quot;color: rgb(0, 0, 0); font-family: Helvetica; font-size: 14px; font-style: normal; font-variant-ligatures: normal; font-variant-caps: normal; font-weight: 400; letter-spacing: normal; orphans: 2; text-align: center; text-indent: 0px; text-transform: none; widows: 2; word-spacing: 0px; -webkit-text-stroke-width: 0px; white-space: normal; background-color: rgb(251, 251, 251); text-decoration-thickness: initial; text-decoration-style: initial; text-decoration-color: initial; display: inline !important; float: none;&quot;&gt;L&lt;/span&gt;&lt;sub style=&quot;forced-color-adjust: none; color: rgb(0, 0, 0); font-family: Helvetica; font-style: normal; font-variant-ligatures: normal; font-variant-caps: normal; font-weight: 400; letter-spacing: normal; orphans: 2; text-align: center; text-indent: 0px; text-transform: none; widows: 2; word-spacing: 0px; -webkit-text-stroke-width: 0px; white-space: normal; background-color: rgb(251, 251, 251); text-decoration-thickness: initial; text-decoration-style: initial; text-decoration-color: initial;&quot;&gt;Pot&lt;/sub&gt;" style="text;whiteSpace=wrap;html=1;" vertex="1" parent="1">
          <mxGeometry x="450" y="1040" width="60" height="40" as="geometry" />
        </mxCell>
        <mxCell id="aMPBUEdfj5LYTeKVrcZE-37" value="&lt;span style=&quot;color: rgb(0, 0, 0); font-family: Helvetica; font-size: 14px; font-style: normal; font-variant-ligatures: normal; font-variant-caps: normal; font-weight: 400; letter-spacing: normal; orphans: 2; text-align: center; text-indent: 0px; text-transform: none; widows: 2; word-spacing: 0px; -webkit-text-stroke-width: 0px; white-space: normal; background-color: rgb(251, 251, 251); text-decoration-thickness: initial; text-decoration-style: initial; text-decoration-color: initial; display: inline !important; float: none;&quot;&gt;L&lt;/span&gt;&lt;sub style=&quot;forced-color-adjust: none; color: rgb(0, 0, 0); font-family: Helvetica; font-style: normal; font-variant-ligatures: normal; font-variant-caps: normal; font-weight: 400; letter-spacing: normal; orphans: 2; text-align: center; text-indent: 0px; text-transform: none; widows: 2; word-spacing: 0px; -webkit-text-stroke-width: 0px; white-space: normal; background-color: rgb(251, 251, 251); text-decoration-thickness: initial; text-decoration-style: initial; text-decoration-color: initial;&quot;&gt;Cur&lt;/sub&gt;" style="text;whiteSpace=wrap;html=1;" vertex="1" parent="1">
          <mxGeometry x="610" y="1040" width="60" height="40" as="geometry" />
        </mxCell>
        <mxCell id="aMPBUEdfj5LYTeKVrcZE-49" style="edgeStyle=orthogonalEdgeStyle;rounded=0;orthogonalLoop=1;jettySize=auto;html=1;strokeWidth=2;entryX=0.5;entryY=0;entryDx=0;entryDy=0;" edge="1" parent="1" source="aMPBUEdfj5LYTeKVrcZE-48" target="aMPBUEdfj5LYTeKVrcZE-9">
          <mxGeometry relative="1" as="geometry">
            <mxPoint x="560" y="520" as="targetPoint" />
            <Array as="points">
              <mxPoint x="555" y="440" />
              <mxPoint x="555" y="440" />
            </Array>
          </mxGeometry>
        </mxCell>
        <mxCell id="aMPBUEdfj5LYTeKVrcZE-64" style="edgeStyle=orthogonalEdgeStyle;rounded=0;orthogonalLoop=1;jettySize=auto;html=1;exitX=0;exitY=0.25;exitDx=0;exitDy=0;entryX=0.166;entryY=0;entryDx=0;entryDy=0;entryPerimeter=0;startArrow=classic;startFill=1;endArrow=none;endFill=0;strokeWidth=2;" edge="1" parent="1" source="aMPBUEdfj5LYTeKVrcZE-63" target="aMPBUEdfj5LYTeKVrcZE-26">
          <mxGeometry relative="1" as="geometry" />
        </mxCell>
        <mxCell id="aMPBUEdfj5LYTeKVrcZE-65" style="edgeStyle=orthogonalEdgeStyle;rounded=0;orthogonalLoop=1;jettySize=auto;html=1;exitX=0;exitY=0.75;exitDx=0;exitDy=0;entryX=0.25;entryY=0;entryDx=0;entryDy=0;startArrow=classic;startFill=1;endArrow=none;endFill=0;strokeWidth=2;" edge="1" parent="1" source="aMPBUEdfj5LYTeKVrcZE-63" target="aMPBUEdfj5LYTeKVrcZE-26">
          <mxGeometry relative="1" as="geometry" />
        </mxCell>
        <mxCell id="aMPBUEdfj5LYTeKVrcZE-70" style="edgeStyle=orthogonalEdgeStyle;rounded=0;orthogonalLoop=1;jettySize=auto;html=1;entryX=0.767;entryY=0;entryDx=0;entryDy=0;entryPerimeter=0;strokeWidth=2;" edge="1" parent="1" source="aMPBUEdfj5LYTeKVrcZE-69" target="aMPBUEdfj5LYTeKVrcZE-26">
          <mxGeometry relative="1" as="geometry">
            <mxPoint x="540" y="980" as="targetPoint" />
            <Array as="points">
              <mxPoint x="540" y="930" />
              <mxPoint x="540" y="930" />
            </Array>
          </mxGeometry>
        </mxCell>
        <mxCell id="aMPBUEdfj5LYTeKVrcZE-71" style="edgeStyle=orthogonalEdgeStyle;rounded=0;orthogonalLoop=1;jettySize=auto;html=1;entryX=0.817;entryY=0;entryDx=0;entryDy=0;entryPerimeter=0;strokeWidth=2;" edge="1" parent="1" source="aMPBUEdfj5LYTeKVrcZE-69" target="aMPBUEdfj5LYTeKVrcZE-26">
          <mxGeometry relative="1" as="geometry">
            <Array as="points">
              <mxPoint x="570" y="890" />
              <mxPoint x="570" y="890" />
            </Array>
          </mxGeometry>
        </mxCell>
        <mxCell id="aMPBUEdfj5LYTeKVrcZE-77" style="edgeStyle=orthogonalEdgeStyle;rounded=0;orthogonalLoop=1;jettySize=auto;html=1;entryX=0.5;entryY=1;entryDx=0;entryDy=0;strokeWidth=2;" edge="1" parent="1" source="aMPBUEdfj5LYTeKVrcZE-8" target="aMPBUEdfj5LYTeKVrcZE-76">
          <mxGeometry relative="1" as="geometry" />
        </mxCell>
      </root>
    </mxGraphModel>
  </diagram>
</mxfile>
